<svg version="1" xmlns="http://www.w3.org/2000/svg" width="933.333" height="933.333" viewBox="0 0 700.000000 700.000000"><path d="M210 4.1c0 1.4.4 5 .9 8 1 5.8 1.8 11.4 2.7 19.4.3 2.7.8 6.6 1.1 8.5 1.2 8.1 1.1 35-.3 42.4-2.6 13.6-7.1 25.2-14.5 37.5-2.2 3.4-3.9 6.7-3.9 7.1 0 1.3-3.3 2.3-6.5 2.1-14.4-1-25.4-6.8-38.9-20.5-8.2-8.3-8.4-8.3-3.4-.8 4.1 5.9 9.5 17.7 11.2 24.2 1.7 6.6 1.9 26.7.2 27.8-.6.3-1.5.7-2.1.8-16.8 3.2-40.4 3.9-54.3 1.8-25.9-4.1-50.1-12.9-70.2-25.8-3.6-2.3-7.2-4.6-8-5.1-.8-.5 1.5 2.3 5.1 6.1 35.5 37 46.4 52.2 52.2 72.4 2.9 9.8 3.4 12.5 4.3 23.5.7 8.7 1.1 9.8 2.4 7.4 1.7-2.9 14.5-18.6 20.1-24.5 37.7-40 87.4-64.1 142.4-69.1 9.4-.9 31.1-.8 41 .1 35.5 3.3 72.1 16.5 102.3 36.8 6.9 4.7 9.6 7.1 5 4.7-1.7-.9-22-6.8-23.1-6.7-.1 0-2.2-.3-4.7-.6-9.6-1.4-11.9-1.5-22.5-1.6-10.3 0-12.7.2-23 1.5-8.6 1.2-23.5 5-29 7.4-1.1.5-4.6 1.9-7.7 3.1-3.2 1.2-9.7 4.5-14.5 7.2-41.8 23.9-69.1 64.8-75 112.3-1 7.5-1 28.1-.1 36 6.1 52.8 42.5 100.5 92.2 120.7 7.5 3.1 21.9 7.4 27.6 8.3 1.9.3 4.6.7 6 1 8.2 1.6 28.4 2.1 39 1.1 5.2-.5 16.1-2.6 19.6-3.7 1.7-.5 4-1.1 5-1.3 7.8-1.6 25-8.9 35.9-15.4 15.9-9.5 33.8-25.8 44.7-41 7.3-10.1 18-30.7 20.4-39.2.9-3.4 2.1-6.3 2.5-6.6.5-.3.7.1.5.8-.3.7-.7 6.1-1 11.9-.4 5.9-1.1 13.1-1.6 16-.5 3-1.2 7-1.5 8.9-.3 1.9-.8 4.2-1 5-.2.8-.7 2.9-1 4.6-1.2 7.4-7.4 26.3-12.3 37.9-5.9 13.8-20.5 38.7-27.9 47.5-10.2 12.2-15.4 17.9-22 24.4-8.9 8.6-27.2 23.5-29 23.6-.6 0-1.3.4-1.5.8-.5 1.2-16.4 10.6-25.9 15.3-16.4 8.1-42.3 16.9-54.3 18.5-1.5.2-3.5.6-4.5.8-.9.3-3.6.8-6.1 1.1-2.5.3-7.6 1-11.5 1.4-7.2.9-41.9.6-49-.4-15.2-2.2-37.5-7.6-49.2-12-3.6-1.4-6.8-2.4-7-2.2-.2.2.5 2.4 1.5 4.8 2 4.8 5.9 16.1 6.8 20 4.1 17.2 4.9 24.2 4.9 42.4 0 19.9-1.3 31.3-5.1 44.4-.8 2.9-1.4 5.5-1.1 5.7.2.2 4-6.8 8.5-15.7 8.2-16 18.7-33.6 22.9-38.6 1.3-1.4 2.3-2.9 2.3-3.3 0-1.4 14-14.4 20.1-18.7 6.2-4.4 22.3-12.6 30.2-15.4l3.8-1.3 4.5 4.9c9.8 10.8 15 24.5 15.7 41.2.1 3.4.4 5.9.6 5.7.5-.5.6-1 1.6-8 2-14.9 7.7-28 15.7-36.4 8.8-9.2 7.4-9 18-3.1 35 19.5 64 52.2 78.5 88.6l2.3 6-.5-6c-.4-3.3-.8-7.4-1.1-9-.6-4.7-1.4-10.5-1.9-16-.3-2.8-.7-7.3-1-10-1.1-10.3-.6-29.6 1-38.7.9-5.1 3-13.1 4.7-17.8 3.7-10.3 13.8-30 15.4-30 2.1 0 13.1 3.8 17.5 6.1 6.9 3.5 13.9 9.1 23.4 18.6l8.8 8.8-4.7-9.3c-7.3-14.5-10.8-26.1-10.9-35.7-.1-16.5-.2-16.2 4.1-17 26-5 53.5-2.9 81.2 6.1 11.9 3.9 29.5 12.2 41.4 19.6l8.1 5-7.1-7.3c-22.8-23.7-37.3-42.1-44.2-56.4-3.7-7.5-7.6-17.9-8.8-23.6-2.4-11.4-4-21.2-4-24.4l.1-3.9 8.5-2.9c11.8-4.1 25.6-4.7 39.5-1.8 5.4 1.1 10.1 1.8 10.4 1.6.2-.3-.1-.5-.7-.5-1.9 0-14.1-6-20.1-9.8-9.6-6.2-19.6-18.1-23.3-27.9-1.1-2.9-.9-3.3 2.3-6.1 1.9-1.6 5.4-4.9 7.9-7.1 6.4-5.9 7.1-6.5 11-9.1 1.9-1.3 3.7-2.7 4-3.1.5-.6 6.4-4.4 12.5-8.1 6.8-4.1 24-12 32.2-14.8 14.2-4.7 35-8.4 47.1-8.3 5.4 0 3.5-1.3-3.3-2.3-2.7-.4-5.2-.8-5.5-.9-.3-.1-2.7-.5-5.5-.9-15.7-2.5-38.1-8.4-49-12.9-5.5-2.3-18.3-9.7-22.4-13.1-5.9-4.7-25.1-24.7-25.1-26.1 0-.2 1.6-2.9 3.5-5.9 6.8-10.7 18.5-20 34.7-27.6 7.9-3.7 10-5.2 4.2-3-1.5.6-4.3 1.3-6.3 1.6-2 .3-4.3.7-5.1 1-3.6 1.3-18.9 1.2-25.5-.1-8-1.7-21.5-7.8-21.5-9.7.1-1.2 2.1-11.4 3.5-17.6 1.7-7.3 7.4-22.3 12.5-32.7 10.1-20.6 24.3-39.8 42-56.9l9.6-9.2-22.1 11.2c-22.7 11.4-38.5 17.5-51 19.4-6.7 1.1-22.2 1.4-27.5.6-1.4-.2-4.7-.6-7.5-1-2.7-.4-7.7-1.3-11-2l-6-1.2-.8-5.4c-1.1-6.9-.2-18.4 1.9-25.8.9-3.1 4.1-10.8 7-17.1 5.8-12.1 6.7-14.7 3.3-9.2-1.1 1.9-6.2 7.6-11.2 12.6-6.6 6.6-11 10-15.7 12.3-7.9 3.9-21 7.3-22.7 6-1.5-1.2-9.4-17.3-12.2-24.8-3.3-8.8-7-21.9-7.7-26.9-.3-2.5-.8-4.9-1-5.2-.7-1.2-1.8-17.3-1.8-25.4.1-8.3 1-21.1 1.9-25.5.3-1.4.7-4.1 1-6 .3-1.9 1.5-7.4 2.8-12.3 1.3-4.8 2.3-8.7 2.2-8.7-.1 0-4.4 7.5-9.6 16.7-8.2 14.9-21.6 36-25.1 39.7-9.9 10.5-15.7 15.7-22.4 20.2-7.8 5.2-20.7 11.7-28.8 14.5l-3.8 1.4-4.4-5c-2.4-2.8-5.5-7.5-7-10.5-2.8-6-7.3-24.1-7.5-30.5-.1-2.2-.4-5.4-.8-7-.6-2.5-.9-1.8-1.9 4.5-2.3 14.9-4.2 22.6-7.3 29.7-2 4.7-12.5 21.3-13.5 21.3-.3 0-4-1.6-8.2-3.6-21.8-10.1-44.9-30.6-59.8-52.9C225.3 35.3 215.6 17 212 7c-1.3-3.9-1.9-4.7-2-2.9zm125.7 223.7c.1.9.5 3.7.9 6.1 1.1 7.8 4.3 13.4 9.2 16 2.6 1.4 14.6 3.8 17.9 3.5 1.2-.1 2.1.2 1.8.5-.2.4-2.1.8-4.2.9-6 .3-13.5 2.3-16.9 4.3-4.1 2.5-6.2 6.9-8.3 17.6-.1.2-.1 1.7-.1 3.5 0 4.2-1.2 2.8-1.7-2-.7-6.8-3.4-14.5-6.2-17.3-3.4-3.3-11-5.6-19.4-5.8-1.7-.1-2.6-.5-2.2-1.1.4-.6 1.2-1 1.8-.8 3.1.5 12.6-1.5 16.2-3.5 3.5-2 7.3-6.7 7.9-9.9.7-3.2 1.7-10.5 1.9-12.5.1-2.5.9-2.2 1.4.5zm89 34c.1 3.6 2.6 20.3 3.7 25.1 3.8 17 12.8 26.6 28.1 29.7 1.1.2 3.1.6 4.5.9 4.4.9 6.4 1.2 13 2.1 3.6.4 7 .8 7.5.9.6.1 2.3.3 3.9.3 5.9.4 2.8 1-12.4 2.7-3 .3-6.2.8-7 1-.8.2-3.1.7-5 1-9.5 1.5-20.6 7.1-25 12.8-5 6.3-9.2 22.3-10.6 40-.4 4.8-.8 8.6-1 8.5-.1-.2-1-5.7-1.8-12.3-.8-6.6-1.7-12.9-2-14-.2-1.1-.9-4.2-1.5-6.8-1.3-5.5-4.2-11.7-7.8-16.3-3.8-5.1-14.3-10-25.3-11.9-8.4-1.5-21.2-2.9-24.9-2.8-5.1.2-.2-1.6 5.9-2.1 3.6-.3 7.6-.7 9-.9 21.2-3.2 31-7.5 36.8-15.9 3.1-4.5 6.4-13.9 7.7-21.8.4-2.5.9-5.4 1.1-6.5.4-2 1.2-9.2 1.6-15.2.3-4.2 1.2-3.2 1.5 1.5z"/></svg>