<svg xmlns="http://www.w3.org/2000/svg" viewBox="0 0 370 77" fill="#fff"><path d="M355.14 37.36a80.6 80.6 0 012.66-4.54 7.97 7.97 0 011.84-2.01c.74-.57 1.49-1.19 2.25-1.84.6-.55 1.34-.55 2.21 0 .44.33.89.57 1.35.74.46.16.97.14 1.51-.08.16-.11.36-.1.57.04.22.14.41.23.57.29l.94.16c.3.06.61.14.94.25-.16-.27-.3-.59-.41-.94a2.8 2.8 0 00-.49-.94c-.11-.16-.26-.35-.45-.57s-.4-.38-.61-.49c-1.09-.76-2.21-1.53-3.36-2.29s-2.32-1.45-3.52-2.05c-2.46-1.31-4.74-1.83-6.84-1.56-2.1.27-4.03 1.2-5.77 2.78a22.43 22.43 0 00-4.43 5.65 45.02 45.02 0 00-5.32 16.54 27.19 27.19 0 00-.2 4.01c.03 1.42-.01 2.84-.12 4.26.44 1.04.83 2.09 1.19 3.15.35 1.07.75 2.09 1.19 3.07 1.53 3.27 4.04 5 7.53 5.16 1.91.11 3.65-.13 5.24-.74a40.27 40.27 0 007.41-3.77 48.67 48.67 0 006.43-5c.22-.22.41-.45.57-.69.16-.25.27-.5.33-.78 0-.11-.11-.22-.33-.33a3.1 3.1 0 00-.78-.25c-.3-.05-.61-.08-.94-.08-.33 0-.57.03-.74.08l-1.07.82a39.85 39.85 0 01-6.35 4.09 48.01 48.01 0 01-7 2.95c-.55.22-.96.36-1.23.41a4 4 0 01-.66-.94 6.7 6.7 0 01-.57-1.76c-.16-.76-.29-1.75-.37-2.95-.08-1.2-.07-2.67.04-4.42a7.6 7.6 0 01.53-2.29c.3-.76.56-1.53.78-2.29.16-.87.52-1.47 1.07-1.8a4.46 4.46 0 012.05-.57h1.02c.35 0 .69-.03 1.02-.08l7.45-.49c.22-.05.42-.16.61-.33a.73.73 0 00.29-.57.87.87 0 00-.16-.69 1.82 1.82 0 00-.49-.53.87.87 0 00-.53-.33c-.25-.05-.42-.05-.53 0-1.31.06-2.58.12-3.81.2-1.23.08-2.53.15-3.89.2-.38 0-.79-.11-1.23-.33v-.82a231 231 0 002.61-4.71zM340.78 26.31c.33-1.34.68-2.66 1.07-3.97a.96.96 0 00-.08-.66 4.8 4.8 0 00-.33-.57 1.8 1.8 0 00-.49-.45c-.22-.13-.33-.26-.33-.37.11-.71-.01-1.19-.37-1.43a3.62 3.62 0 00-1.43-.53c-.55-.11-1.08-.19-1.6-.25-.52-.05-1.02.14-1.51.57a58.83 58.83 0 01-3.93 2.99 40.45 40.45 0 00-3.93 3.15 27.62 27.62 0 00-3.81 4.34 39.26 39.26 0 00-3.07 5.16c-1.26 2.4-2.58 4.76-3.97 7.08s-2.8 4.62-4.22 6.92a1.4 1.4 0 01-.37.49c-.14.11-.26.25-.37.41a3.64 3.64 0 01-.08-1.31l.78-6.06a26.2 26.2 0 011.43-5.9c.11-.33.19-.67.25-1.02.05-.35.13-.67.25-.94a200 200 0 011.02-3.89c.36-1.28.64-2.55.86-3.81.05-.6.2-1.2.45-1.8.25-.6.44-1.2.57-1.8.13-.6.16-1.2.08-1.8-.08-.6-.4-1.2-.94-1.8-.06-.05-.04-.12.04-.2.08-.08.1-.15.04-.2-.22-.6-.47-.96-.74-1.07-1.26-.77-2.18-1.02-2.78-.78-.6.25-1.15 1.02-1.64 2.33-.11.44-.23.83-.37 1.19-.14.36-.26.75-.37 1.19a119.53 119.53 0 00-2.5 13.39l-1.93 13.55a19.25 19.25 0 00-1.14 3.94c-.16.77-.36 1.69-.57 2.78a91.1 91.1 0 00-.61 3.4l-.57 3.4a29.65 29.65 0 00-.37 2.86c-.11 1.91.23 3.16 1.02 3.77.79.6 2.14.63 4.05.08.22-.11.42-.19.61-.25s.4-.14.61-.25c.22-.16.48-.29.78-.37.3-.08.56-.2.78-.37a.77.77 0 00.33-.66c0-.28-.19-.66-.57-1.15-.16-.16-.2-.42-.12-.78s.18-.67.29-.94a139.25 139.25 0 011.18-4.01c.25-.77.5-1.5.78-2.21l.66-1.72a82.04 82.04 0 0115.06-23.75 20.7 20.7 0 011.84-1.8l1.85-1.65c.01.21.03.41.07.59.05.22.05.47 0 .74a42.03 42.03 0 00-1.27 7.53c-.19 2.51-.48 5.05-.86 7.61a53.14 53.14 0 01-.66 4.38c-.28 1.45-.55 2.94-.82 4.46l-.22.27c-.22.6-.26.68-.4.96a3.4 3.4 0 00-.29.78c-.06.25-.1.52-.12.82-.03.3-.04.75-.04 1.35-.11 2.18.23 3.6 1.02 4.26.79.66 2.22.87 4.3.66h.25c.6 0 1.02-.12 1.27-.37s.26-.69.04-1.35c-.06-.6-.1-1.23-.12-1.88a131.24 131.24 0 01.53-9.17c.22-2.24.53-4.45.94-6.63.41-2.18.91-4.38 1.51-6.59s1.31-4.54 2.13-7c.46-1.26.84-2.56 1.17-3.89zM293.21 40.02c.49-1.91.97-3.82 1.43-5.73.46-1.91.94-3.82 1.43-5.73.11-.11.14-.25.08-.41-.06-.16-.08-.3-.08-.41-.11.11-.26.23-.45.37-.19.14-.29.26-.29.37a47.35 47.35 0 00-1.72 4.42c-.44 1.58-.85 3.17-1.23 4.75s-.77 3.11-1.15 4.59a4.63 4.63 0 00.5.98c.11-.11.23-.22.37-.33a1 1 0 00.29-.41c.11-.38.25-.78.41-1.19.16-.41.3-.83.41-1.27zM306.55 23.64c-.22-.22-1.09-.38-2.62-.49-.93-.11-1.86-.11-2.78 0l-1.51.12a1.6 1.6 0 00-.82.25c-.19.14-.36.31-.49.53-.14.22-.29.52-.45.9a54.5 54.5 0 00-1.84 6.71c-.47 2.24-.86 4.5-1.19 6.79a583.6 583.6 0 00-1.51 12.24c-.47 4.07-.75 8.15-.86 12.24.22.6.38 1.17.49 1.72.11.55.3 1.12.57 1.72.05.16.23.31.53.45.3.13.64.23 1.02.29s.78.1 1.19.12c.41.03.75-.01 1.02-.12.71-.11.99-.31.86-.61-.14-.3-.2-.59-.2-.86.05-1.04.08-2.03.08-2.99s.03-1.95.08-2.99l.16-.82a1 1 0 01.49-.66c.49-.44.78-.85.86-1.23a375.04 375.04 0 012.98-16.42 175.12 175.12 0 013.85-15.19c.28-.9.31-1.48.09-1.7zM281.09 29.46c-.38 1.91-.74 3.82-1.07 5.73s-.66 3.68-.98 5.32c.05.49.08.85.08 1.07v.57l.2-.41.29-.57 2.13-9.79c.71-3.25 1.45-6.51 2.21-9.79.11-.27.16-.56.16-.86v-.86a1 1 0 00-.08-.41 4.56 4.56 0 00-.25-.41l-.25.37-.25.37c-.16.28-.25.52-.25.74a87.2 87.2 0 01-.94 4.5l-1 4.43z"/><path d="M288.54 49.93c-.16-.11-.4-.13-.69-.08-.3.06-.45.03-.45-.08-.44-.66-.85-.89-1.23-.69-.38.19-.71.45-.98.78a185.28 185.28 0 00-4.59 3.77c-1.47 1.26-3 2.51-4.59 3.77-.11.11-.26.19-.45.25l-.53.16c0-.16-.01-.31-.04-.45s-.01-.31.04-.53c.22-1.42.46-2.85.74-4.3l.82-4.3 1.93-10.64c.63-3.49 1.32-7.04 2.09-10.64.27-1.42.6-2.81.98-4.18l1.15-4.18c.27-1.04 0-1.77-.82-2.21l-2.13-.98c-.71-.33-1.45-.57-2.21-.74-.82-.27-1.4-.33-1.76-.16-.36.16-.67.63-.94 1.39-.38 1.2-.77 2.37-1.15 3.52s-.71 2.32-.98 3.52c-1.15 5.51-2.16 11-3.03 16.46s-1.45 11.03-1.72 16.7v3.85c0 .87.01 1.71.04 2.5s.1 1.57.2 2.33c.16 1.09.48 1.8.94 2.13.46.33 1.24.46 2.33.41h1.07c.38 0 .71.05.98.16.55.38.96.46 1.23.25.27-.22.54-.49.82-.82.93-1.09 1.83-2.18 2.7-3.27a48.8 48.8 0 012.78-3.19 96.65 96.65 0 014.22-4.13 331.1 331.1 0 004.3-4.05l.2-.37a3.49 3.49 0 00.36-.78 2.7 2.7 0 00-1.63-1.18zM266.11 28.48a6.8 6.8 0 00-.45-.57c-.19-.22-.4-.38-.61-.49-1.09-.76-2.21-1.53-3.36-2.29s-2.32-1.45-3.52-2.05c-2.46-1.31-4.74-1.83-6.84-1.56-2.1.27-4.03 1.2-5.77 2.78a22.43 22.43 0 00-4.43 5.65 45.02 45.02 0 00-5.32 16.54 27.19 27.19 0 00-.2 4.01c.03 1.42-.01 2.84-.12 4.26.44 1.04.83 2.09 1.19 3.15.35 1.07.75 2.09 1.19 3.07 1.53 3.27 4.04 5 7.53 5.16 1.91.11 3.65-.13 5.24-.74a40.27 40.27 0 007.41-3.77 48.67 48.67 0 006.43-5c.22-.22.41-.45.57-.69.16-.25.27-.5.33-.78 0-.11-.11-.22-.33-.33a3.1 3.1 0 00-.78-.25c-.3-.05-.61-.08-.94-.08-.33 0-.57.03-.74.08l-1.07.82a39.85 39.85 0 01-6.35 4.09 48.01 48.01 0 01-7 2.95c-.55.22-.96.36-1.23.41a4 4 0 01-.66-.94 6.7 6.7 0 01-.57-1.76c-.16-.76-.29-1.75-.37-2.95-.08-1.2-.07-2.67.04-4.42a7.6 7.6 0 01.53-2.29c.3-.76.56-1.53.78-2.29.16-.87.52-1.47 1.07-1.8a4.46 4.46 0 012.05-.57h1.02c.35 0 .69-.03 1.02-.08l7.45-.49c.22-.05.42-.16.61-.33a.73.73 0 00.29-.57.87.87 0 00-.16-.69 1.82 1.82 0 00-.49-.53.87.87 0 00-.53-.33c-.25-.05-.42-.05-.53 0-1.31.06-2.58.12-3.81.2-1.23.08-2.53.15-3.89.2-.38 0-.79-.11-1.23-.33v-.82l2.58-4.71a80.6 80.6 0 012.66-4.54 7.97 7.97 0 011.84-2.01c.74-.57 1.49-1.19 2.25-1.84.6-.55 1.34-.55 2.21 0 .44.33.89.57 1.35.74.46.16.97.14 1.51-.08.16-.11.36-.1.57.04.22.14.41.23.57.29l.94.16c.3.06.61.14.94.25-.16-.27-.3-.59-.41-.94a2.36 2.36 0 00-.46-.94zM251.78 15.96c.33.11.82.19 1.47.25.22-.11.48-.2.78-.29.3-.08.56-.26.78-.53.93-1.09 1.84-2.14 2.74-3.15.9-1.01 1.81-2.06 2.74-3.15.38-.44.54-.77.49-.98-.06-.22-.38-.41-.98-.57-.66-.22-1.23-.37-1.72-.45a3.6 3.6 0 00-1.31 0c-.38.08-.75.29-1.1.61-.36.33-.75.77-1.19 1.31a129.54 129.54 0 01-3.6 4.1c-.66.77-.93 1.37-.82 1.8.11.42.68.77 1.72 1.05zM237.84 24.09c.44-1.97-.28-3.03-2.13-3.19a3.44 3.44 0 01-.94-.25c-.25-.11-.5-.25-.78-.41-.87-.6-1.49-.89-1.84-.86-.36.03-.89.5-1.6 1.43a660.79 660.79 0 00-5.49 6.88c-1.8 2.29-3.58 4.67-5.32 7.12a118.8 118.8 0 00-4.34 6.67 982.24 982.24 0 01-4.18 6.84.82.82 0 01-.37.33c-.14.06-.26.14-.37.25 0-.11-.01-.22-.04-.33s-.04-.22-.04-.33c.16-1.47.34-2.94.53-4.38.19-1.45.37-2.91.53-4.38.27-2.02.5-4.05.69-6.1.19-2.05.4-4.11.61-6.18.11-.93-.04-1.64-.45-2.13a4.68 4.68 0 00-2.25-1.23c-.82-.33-1.46-.41-1.92-.25-.47.16-.99.66-1.6 1.47-.77 1.09-1.53 2.21-2.29 3.36a74.4 74.4 0 00-2.21 3.52 340.66 340.66 0 00-3.64 6.47 406.34 406.34 0 01-3.64 6.47c0 .06-.08.11-.25.16-.16.06-1.04.25-1.47.25s-.79.14-1.07.41c0-.27-.03-.57-.08-.9-.06-.33-.03-.63.08-.9.77-3.27 1.54-6.54 2.34-9.79.79-3.25 1.6-6.51 2.42-9.79.11-.27.2-.61.29-1.02.08-.41.07-.67-.04-.78-.6-.33-1.17-.61-1.72-.86a7.3 7.3 0 00-1.72-.53c-.28-.05-.59.1-.94.45-.36.36-.59.72-.69 1.1-.49 1.42-.98 2.8-1.47 4.13-.49 1.34-.9 2.72-1.23 4.13a104.99 104.99 0 00-2.66 14.94c-.52 5-.99 9.98-1.43 14.94l-.29 2.13c-.08.66-.12 1.37-.12 2.13 0 1.04.25 1.99.74 2.86.06.16.3.2.74.12a6.9 6.9 0 011.23-.12h1.97c.55 0 .94-.14 1.19-.41.25-.28.42-.66.53-1.15a89.32 89.32 0 016.14-15.39c2.51-4.91 5.16-9.77 7.94-14.57.05-.16.13-.31.25-.45.11-.13.22-.29.33-.45 0-.05.05-.11.16-.16s.22-.13.33-.25c.11.33.16.55.16.66a68.5 68.5 0 01-.25 3.24l-.33 3.15-.49 8.88c-.16 2.92-.3 5.85-.41 8.8 0 1.37.55 2.18 1.64 2.46 1.42.16 2.43-.33 3.03-1.47l2.78-5.98a16.8 16.8 0 014.01-5.32l.08-.08c.33-.55.66-1.05.98-1.51.33-.46.63-.94.9-1.43a360.43 360.43 0 015-8.1l.41-.61c.16-.25.46-.26.9-.04l-.08-.08.16.08a66.7 66.7 0 00-2.05 12.53 99.5 99.5 0 000 12.69c.05.33.1.66.12.98.03.33.15.63.37.9.16.28.42.56.78.86.35.3.67.4.94.29a4 4 0 001.27-.78c.41-.35.75-.67 1.02-.94.11-.11.12-.29.04-.53a3.33 3.33 0 01-.19-1.04c.06-1.69.1-2.04.13-3.13.03-1.09.1-2.18.2-3.27 0-.16.06-.21.23-.37.08-.03.07-.04.18-.04h.08a6.4 6.4 0 00-.08 1.8c.05.6.08 1.19.08 1.76 0 .58-.06 1.15-.16 1.72l.06 2.45c.11.38.27.71.49.98l.41.41c.16.16.35.3.57.41.11-.27.23-.49.37-.66.13-.16.23-.35.29-.57 0-.6-.01-1.19-.04-1.76-.03-.57-.01-1.16.04-1.76.77-4.7 1.57-9.38 2.42-14.04a168 168 0 013.15-13.96c.33-1.42.71-2.85 1.15-4.3.42-1.45.83-2.88 1.22-4.3zM179.73 45.67c-.44-.33-.89-.61-1.35-.86-.47-.25-.94-.5-1.43-.78a19.85 19.85 0 00-4.95-1.64c-1.72-.33-3.45-.6-5.2-.82-.6-.11-.97-.29-1.1-.53-.14-.25-.1-.61.12-1.1a127.3 127.3 0 012.62-6.88c.93-2.24 2.1-4.39 3.52-6.47a30.52 30.52 0 012.74-3.6 21.44 21.44 0 013.4-3.11 5.9 5.9 0 011.14-.41c0 .22.03.45.08.69.05.25.03.45-.08.61-.28.6-.56 1.15-.86 1.64s-.59.98-.86 1.47c.22.11.44.16.66.16s.27.19.16.57l-.29 1.07c-.09.33-.18.63-.29.9a67.5 67.5 0 00-1.07 2.58c-.33.85-.63 1.71-.9 2.58-.28.71-.22 1.26.16 1.64.38.38.93.57 1.64.57a2.65 2.65 0 002.54-1.39c.27-.49.57-.97.9-1.43.33-.46.63-.91.9-1.35.6-1.31 1.17-2.62 1.72-3.93s1.12-2.62 1.72-3.93l-.41 1.56-1.27 3.48c-.41 1.12-.8 2.28-1.19 3.48h.33c.11 0 .19-.03.25-.08a21.43 21.43 0 005.32-10.56c.38-1.31-.08-2.32-1.39-3.03a5.46 5.46 0 01-1.1-.61 9.24 9.24 0 00-.69-.49l-.69-.41a7.31 7.31 0 00-1.1-.45 10.96 10.96 0 00-5.53-.66 8.42 8.42 0 00-4.87 2.78 51.82 51.82 0 00-3.19 2.95 40.96 40.96 0 00-7.33 11.79 63.15 63.15 0 00-3.73 13.35c-.11.77.01 1.38.37 1.84.35.47.8.91 1.35 1.35.49.28.99.44 1.51.49.52.06 1.05-.13 1.6-.57.27-.22.57-.34.9-.37.33-.03.66-.12.98-.29.33-.16.61-.38.86-.66l.78-.82c.6-.49 1.13-.71 1.6-.66.46.06.99.33 1.6.82a5.3 5.3 0 011.35 2.17c.25.79.34 1.65.29 2.58a14.56 14.56 0 01-2.13 7.25c-1.31 2.1-3 4-5.08 5.69-.71.55-1.53.63-2.46.25a5.5 5.5 0 00-1.8-.49l-1.8-.16c-.49 0-.8.15-.94.45-.13.3-.07.67.2 1.1.54.87 1.17 1.62 1.88 2.25.71.63 1.61.99 2.7 1.1.82.11 1.64.15 2.46.12.82-.03 1.64.01 2.46.12 1.64.16 3.32-.12 5.03-.86a18.97 18.97 0 004.83-3.03 20.32 20.32 0 003.85-4.38 14.18 14.18 0 002.09-4.83c.38-1.91.3-3.7-.25-5.36a9.76 9.76 0 00-3.28-4.45zM155.49 21.02l-2.21-1.35a7.43 7.43 0 00-2.37-.94 10.65 10.65 0 00-6.02.25 16.11 16.11 0 00-5.2 3.03c-3 2.46-5.36 5.28-7.08 8.47a44.58 44.58 0 00-3.97 10.36c-.55 2.07-.9 4.15-1.07 6.22-.16 2.07 0 4.15.49 6.22.27 1.09.59 2.1.94 3.03a4.92 4.92 0 002.01 2.37l-.08-.08c-.06-.6-.12-1.21-.2-1.84-.08-.63-.2-1.24-.37-1.84a29.5 29.5 0 01.66-12.77c.11-.27.23-.48.37-.61l.33-.33-.29 1.73-.33 2.01c-.66 4.26-.3 8.49 1.07 12.69a7.12 7.12 0 003.52 4.3 7.86 7.86 0 004.74.86c1.58-.16 3.03-.6 4.34-1.31a15.99 15.99 0 003.68-2.78 22.84 22.84 0 004.5-6.59 39.66 39.66 0 002.54-7.74c.49-1.69.66-3.4.49-5.12a22.42 22.42 0 00-1.15-5.2c-.38-1.42-1.07-2.4-2.05-2.95a8.39 8.39 0 00-3.44-.98c-1.04 0-1.31.49-.82 1.47a18.84 18.84 0 011.51 7.49c-.03 2.48-.5 4.98-1.43 7.49a74.28 74.28 0 01-2.58 6.1 16.59 16.59 0 01-4.05 5.28c-.77.66-1.38 1.13-1.84 1.43-.47.3-.86.41-1.19.33-.33-.08-.6-.37-.82-.86a17.1 17.1 0 01-.74-2.13 2.95 2.95 0 01-.16-.94c0-.3-.06-.61-.16-.94a19.26 19.26 0 01-.2-4.91c.13-1.64.42-3.27.86-4.91a47.45 47.45 0 013.97-10.4 33.4 33.4 0 016.76-8.84c.71-.71 1.49-1.29 2.33-1.76.85-.46 1.81-.4 2.91.2.11.06.2.08.29.08.08 0 .18.03.29.08.54.06.97-.07 1.27-.37.3-.3.59-.67.86-1.1.27-.49.29-.89.04-1.19a2.58 2.58 0 00-.95-.71zM124.24 57.38a798.4 798.4 0 01-18.02-9.66 4.58 4.58 0 01-.9-.57 58.9 58.9 0 01-.82-.66l.82-.69c.27-.25.57-.45.9-.61 2.4-1.26 4.76-2.47 7.08-3.64 2.32-1.17 4.65-2.39 7-3.64a22.92 22.92 0 004.51-2.7c.82-.6 1.2-1.38 1.15-2.34a2.54 2.54 0 00-1.47-2.17c-.49-.27-.64-.48-.45-.61s.34-.31.45-.53a.5.5 0 00.16-.37v-.37c-.33-.11-.57-.13-.74-.08-.16.08-.36.16-.62.23l-.34.13-8.86 4.64a682.56 682.56 0 01-9.01 4.59c-.55.28-1.12.52-1.72.74-.6.22-1.2.47-1.8.74l.29-1.88c.08-.6.18-1.2.29-1.8.76-3.77 1.49-7.48 2.17-11.13.68-3.66 1.4-7.37 2.17-11.13.22-1.09.16-1.83-.16-2.21-.33-.38-1.01-.52-2.05-.41-.77.11-1.53.18-2.29.2a2.92 2.92 0 01-2.13-.86c-.11-.11-.34-.12-.69-.04-.36.08-.61.23-.78.45-.28.33-.55.68-.82 1.07-.28.38-.47.79-.57 1.23-.55 1.58-1.08 3.19-1.6 4.83s-1 3.3-1.43 5c-1.04 3.99-1.72 8-2.05 12.04s-.57 8.08-.74 12.12a52.7 52.7 0 00-.2 3.73l-.12 3.73a28.88 28.88 0 00-.16 4.34c.06 1.42.25 2.84.57 4.26a4.2 4.2 0 001.15 2.37c.54.49 1.37.79 2.46.9.66.05 1.17.08 1.56.08.38 0 .66-.08.82-.25.16-.16.26-.41.29-.74.03-.33.04-.82.04-1.47 0-.33.01-.64.04-.94.03-.3.04-.59.04-.86l.82-5.2.82-5.2c.16-1.09.35-1.7.57-1.84.22-.14.79-.01 1.72.37l11.3 4.91c3.77 1.64 7.53 3.25 11.3 4.83.27.11.5.23.69.37.19.14.42.2.69.2.11 0 .27-.12.49-.37.22-.25.3-.42.25-.53a4.08 4.08 0 00-2.07-2.6zM63.31 50.09c-3.31-1.22-4.39-2.37-5.44-4.64 3.11-3.14 7.44-5.91 13.7-5.94-7-1.22-9.33-1.63-12.87-6.1.95-1.76 2.1-2.84 5.38-4.19-3.38 1.01-4.94.74-7.13-.44.58-4.23 2.85-8.95 7.55-12.94-6.36 3.37-8.29 4.32-13.83 3.03-.37-2.47 0-3.68 1.66-6.76-2.1 2.84-3.35 3.58-5.82 3.95-2.33-4.09-3.4-8.93-1.54-15.01-3.32 6.15-4.51 8.35-9.81 10.3-1.52-1.39-1.92-2.74-2.26-6.32-.44 3.44-.82 4.66-2.44 6.62C26.27 9.97 22.59 6.28 20.43.3c1.01 7.07 1.38 9.53-1.67 14.13-2.23-.07-3.55-.78-5.81-3.42 1.92 2.74 2.33 4.09 2.02 6.76-4.5.97-9.84.36-14.97-3.26 4.86 5.18 6.82 6.8 6.99 12.28l.04.02a24.38 24.38 0 0120.02-10.53c5.42 0 10.41 1.77 14.45 4.77a16.35 16.35 0 109.82 19.59 24.3 24.3 0 01-15.6 22.59l-.51.19a24.25 24.25 0 01-17.39-.41c1.64 3.57 2.3 8.14.69 13.39 3.22-6.49 4.4-8.68 9.71-10.64 1.52 1.39 2.36 2.98 2.26 6.32.44-3.45.81-4.66 2.88-6.39a19.4 19.4 0 019.93 11.03c-.91-6.73-1.28-9.2 1.67-14.13 1.99.51 3.31 1.22 5.57 3.86-1.69-3.18-2.09-4.53-1.68-6.87 4.16-.87 9.5-.26 14.63 3.36-4.86-5.18-6.48-6.9-7.09-12.62 1.92-.94 3.71-1.11 6.92-.23zm-29.13-18.5c-.29-3.06-.53-3.28-3.61-3.55 3.08-.29 3.31-.52 3.59-3.58.29 3.06.53 3.28 3.61 3.55-3.09.3-3.32.53-3.59 3.58zm16.59 3.84c-5.86.58-6.32 1.21-6.87 7.34-.61-6.32-1.09-6.79-7.47-7.35 6.38-.6 6.85-1.07 7.42-7.4.59 6.13 1.05 6.75 6.9 7.3l.57.05-.55.06z"/></svg>